<?xml version="1.0" standalone="no"?>
<!DOCTYPE svg PUBLIC "-//W3C//DTD SVG 20010904//EN"
 "http://www.w3.org/TR/2001/REC-SVG-20010904/DTD/svg10.dtd">
<svg version="1.0" xmlns="http://www.w3.org/2000/svg"
 width="32.000000pt" height="40.000000pt" viewBox="0 0 32.000000 40.000000"
 preserveAspectRatio="xMidYMid meet">
<metadata>
Created by potrace 1.16, written by Peter Selinger 2001-2019
</metadata>
<g transform="translate(0.000000,40.000000) scale(0.014222,-0.017778)"
fill="#000000" stroke="none">
<path d="M1055 1963 c-472 -44 -817 -463 -765 -927 13 -112 58 -249 112 -341
54 -92 201 -239 293 -293 260 -152 596 -153 859 0 143 83 293 260 354 418 91
237 68 517 -60 734 -52 89 -172 214 -261 273 -145 97 -363 152 -532 136z m296
-180 c205 -71 362 -229 436 -438 25 -73 28 -92 28 -220 0 -131 -2 -145 -31
-226 -74 -207 -231 -362 -439 -436 -73 -25 -92 -28 -220 -28 -128 0 -147 3
-220 28 -208 74 -365 229 -439 436 -29 81 -31 95 -31 226 0 127 3 147 28 220
53 152 157 284 288 368 125 80 232 108 394 104 102 -3 133 -8 206 -34z"/>
<path d="M1126 1496 c-85 -32 -121 -95 -114 -202 3 -51 10 -72 35 -107 29 -42
30 -44 11 -56 -38 -23 -60 -96 -56 -180 6 -142 67 -204 198 -204 91 0 141 28
175 97 46 92 26 254 -36 287 -19 10 -18 11 6 43 72 95 51 254 -42 309 -43 25
-128 31 -177 13z m104 -121 c16 -20 16 -124 1 -154 -13 -24 -43 -28 -60 -7
-22 26 -26 122 -7 151 19 28 47 33 66 10z m4 -317 c18 -26 22 -131 6 -172 -7
-20 -17 -26 -39 -26 -40 0 -51 23 -51 107 0 74 17 113 50 113 10 0 26 -10 34
-22z"/>
<path d="M698 1458 l-68 -40 0 -59 c0 -33 2 -59 5 -59 3 0 23 9 45 20 22 11
42 20 45 20 3 0 5 -130 5 -290 l0 -290 75 0 75 0 0 370 0 370 -57 0 c-50 -1
-68 -7 -125 -42z"/>
<path d="M1548 1218 c-3 -43 -3 -43 -45 -46 l-43 -3 0 -44 0 -44 43 -3 c42 -3
42 -3 45 -45 l3 -43 45 0 44 0 0 45 0 45 40 0 40 0 0 44 c0 44 0 45 -37 48
-37 3 -38 4 -41 46 l-3 42 -44 0 -44 0 -3 -42z"/>
</g>
</svg>
