<?xml version="1.0" standalone="no"?>
<!DOCTYPE svg PUBLIC "-//W3C//DTD SVG 20010904//EN"
 "http://www.w3.org/TR/2001/REC-SVG-20010904/DTD/svg10.dtd">
<svg version="1.0" xmlns="http://www.w3.org/2000/svg"
 width="32.000000pt" height="32.000000pt" viewBox="0 0 32.000000 32.000000"
 preserveAspectRatio="xMidYMid meet">
<metadata>
Created by potrace 1.16, written by Peter Selinger 2001-2019
</metadata>
<g transform="translate(0.000000,32.000000) scale(0.011268,-0.018079)"
fill="#000000" stroke="none">
<path d="M1354 1552 c1 -85 -26 -145 -126 -286 -87 -121 -143 -229 -159 -305
-17 -84 -6 -222 24 -306 15 -38 25 -71 23 -73 -2 -1 -18 9 -35 24 -56 46 -104
147 -120 249 l-7 50 -16 -36 c-58 -132 -49 -299 23 -447 39 -79 141 -189 205
-222 94 -46 200 -37 250 23 23 27 26 38 22 84 -3 36 -14 66 -36 100 -86 132
-125 205 -148 281 -35 110 -32 237 8 324 23 51 115 164 125 155 2 -2 -4 -24
-13 -48 -10 -26 -17 -76 -17 -121 -1 -113 32 -174 179 -328 139 -146 169 -200
161 -291 -7 -83 -17 -91 -39 -33 -30 76 -88 145 -149 179 l-54 29 20 -30 c96
-143 106 -259 29 -343 l-34 -38 44 8 c152 28 284 109 351 214 53 83 68 142 63
258 -3 94 -6 108 -41 177 -20 41 -52 102 -71 135 -58 101 -82 236 -56 324 5
19 8 37 5 39 -2 2 -24 -7 -48 -21 -50 -30 -104 -86 -122 -130 -11 -27 -12 -23
-19 55 -7 99 -26 172 -61 244 -27 54 -103 141 -142 162 -20 11 -20 9 -19 -56z
m335 -607 c6 -22 29 -71 52 -109 66 -110 81 -150 81 -225 0 -37 -7 -82 -14
-101 l-15 -35 -7 46 c-7 46 -22 72 -110 196 -62 86 -69 167 -25 279 10 27 12
27 19 9 4 -11 13 -38 19 -60z"/>
</g>
</svg>
